<?xml version="1.0" encoding="UTF-8" standalone="no"?>
<svg xmlns="http://www.w3.org/2000/svg" height="42px" width="100px" version="1.1" xmlns:xlink="http://www.w3.org/1999/xlink" viewBox="0 0 100 42"><!-- Generator: Sketch 42 (36781) - http://www.bohemiancoding.com/sketch -->
 <title>Group 12</title>
 <desc>Created with Sketch.</desc>
 <g id="Page-1" fill-rule="evenodd" fill="none">
  <g id="who_we_are" fill="#303030" transform="translate(-966 -1987)">
   <g id="Group-12" transform="translate(966 1987)">
    <path id="Fill-5" d="m55.117 4.65c0 2.3381-1.462 4.233-3.267 4.233-1.806 0-3.269-1.8949-3.269-4.233 0-2.3376 1.463-4.2326 3.269-4.2326 1.805 0.00003 3.267 1.895 3.267 4.2326"/>
    <path id="Fill-6" d="m99.863 4.65c0 2.3381-1.463 4.233-3.268 4.233s-3.269-1.8949-3.269-4.233c0-2.3376 1.464-4.2326 3.269-4.2326 1.805 0.00003 3.268 1.895 3.268 4.2326"/>
    <path id="Fill-7" d="m41.15 24.366c-0.002-1.679-0.233-3.317-0.789-4.912-0.786-2.257-2.23-3.902-4.544-4.687-1.194-0.405-2.429-0.506-3.684-0.479-3.075 0.068-5.737 1.151-7.965 3.266-0.479 0.454-0.879 0.995-1.29 1.518-0.169 0.216-0.39 0.691-0.39 0.691s-0.201-0.476-0.333-0.705c-0.15-0.263-0.299-0.526-0.453-0.787-1.275-2.162-3.18-3.453-5.628-3.846-2.997-0.483-5.79 0.1-8.1671 2.07-0.8188 0.679-1.4766 1.551-2.211 2.333-0.1115 0.119-0.5904 0.889-0.5904 0.889l-0.0037-5.012h-4.7853l0.00001 26.934h4.7853s-0.0036-9.236 0.0092-13.549c0.0046-1.584 0.1624-3.149 0.7569-4.645 0.6115-1.537 1.5349-2.834 2.9266-3.74 1.9325-1.258 4.0225-1.609 6.2655-0.98 1.22 0.342 2.067 1.107 2.634 2.208 0.454 0.878 0.667 1.812 0.76 2.765v17.941h4.785v-15.534c0.119-1.038 0.375-2.042 0.821-3.022 0.697-1.527 1.665-2.806 3.115-3.687 1.656-1.007 3.468-1.178 5.322-0.87 1.17 0.194 2.121 0.838 2.85 1.807 0.64 0.851 0.92 1.8 1.017 2.793v18.513h4.786v-17.273 0"/>
    <path id="Fill-8" d="m98.988 41.611c0-0.281-0.002-2.761 0-5.67v-21.236h-4.786v26.934h4.786v-0.028"/>
    <path id="Fill-9" d="m54.242 41.611c0-0.281-0.001-2.761 0-5.67v-21.236h-4.785v26.934h4.785v-0.028"/>
    <path id="Fill-10" d="m82.343 35.941l-5.753-7.769 9.971-13.467h-4.785l-7.578 10.236-7.579-10.236h-4.786l9.972 13.467-5.753 7.769c-2.152 2.909-3.99 5.389-4.198 5.67-0.013 0.018-0.02 0.028-0.02 0.028h4.785l7.579-10.236 7.578 10.236h4.785s-0.007-0.01-0.02-0.028c-0.208-0.281-2.046-2.761-4.198-5.67"/>
   </g>
  </g>
 </g>
</svg>
