<?xml version="1.0" standalone="no"?>
<!DOCTYPE svg PUBLIC "-//W3C//DTD SVG 20010904//EN"
 "http://www.w3.org/TR/2001/REC-SVG-20010904/DTD/svg10.dtd">
<svg version="1.0" xmlns="http://www.w3.org/2000/svg"
 width="558.000000pt" height="558.000000pt" viewBox="0 0 558.000000 558.000000"
 preserveAspectRatio="xMidYMid meet">
<metadata>
Created by potrace 1.11, written by Peter Selinger 2001-2013
</metadata>
<g transform="translate(0.000000,558.000000) scale(0.100000,-0.100000)"
fill="#000000" stroke="none">
<path d="M2565 4571 c-173 -89 -630 -322 -1215 -619 -179 -90 -330 -170 -336
-176 -8 -8 -15 -276 -23 -904 l-12 -893 23 -20 c13 -11 99 -58 192 -105 l169
-86 -7 124 c-3 68 -13 260 -21 428 -8 168 -18 356 -21 418 l-7 112 364 0 c200
0 420 3 489 6 l126 7 46 -49 c25 -27 94 -105 153 -174 59 -69 146 -167 193
-217 l85 -93 154 0 c84 0 153 3 153 6 0 7 -545 620 -624 702 l-60 62 -273 0
c-150 0 -273 3 -273 8 0 4 112 56 248 116 590 260 581 256 537 256 -37 1 -39
2 -21 15 18 13 -11 15 -253 15 l-274 0 -389 -156 c-215 -85 -392 -153 -395
-151 -5 5 -32 437 -33 519 l0 48 108 51 c59 28 204 97 322 154 118 56 269 128
335 159 66 32 266 127 445 212 l325 155 580 -281 c319 -154 587 -284 595 -288
10 -6 20 -43 30 -115 9 -69 19 -107 26 -107 7 0 15 8 17 18 3 9 5 2 6 -15 0
-18 6 -33 11 -33 6 0 10 48 10 125 l0 124 -35 28 c-31 25 -93 59 -455 250
-256 136 -730 388 -785 418 l-60 33 -170 -87z"/>
<path d="M4160 3898 c0 -13 11 -221 25 -463 14 -242 25 -467 25 -501 l0 -61
-447 -7 -447 -8 -36 39 c-19 21 -109 124 -199 228 -90 105 -179 205 -197 223
l-32 33 -156 -3 -155 -3 52 -61 c94 -109 561 -628 601 -666 l38 -38 272 -1
271 -1 -45 -21 c-67 -32 -156 -72 -445 -200 -143 -63 -280 -124 -305 -135
l-45 -20 50 -2 c49 -1 50 -1 25 -16 -22 -13 3 -14 255 -8 l280 6 338 135 c186
75 342 132 346 127 7 -7 31 -430 31 -527 0 -29 -19 -39 -355 -197 -44 -21
-147 -70 -230 -110 -82 -39 -179 -86 -215 -102 -36 -17 -117 -55 -180 -86 -63
-30 -213 -101 -333 -158 l-218 -103 -256 125 c-140 68 -257 124 -258 124 -2 0
-119 57 -261 126 -143 70 -296 143 -340 164 l-82 38 -13 106 c-7 58 -16 106
-21 106 -4 0 -8 -10 -9 -22 -1 -25 -4 -19 -13 25 -4 15 -11 27 -16 27 -6 0
-10 -49 -10 -123 0 -149 -14 -132 202 -247 154 -83 176 -95 478 -255 91 -48
274 -145 406 -216 133 -71 247 -129 254 -129 11 0 234 112 865 435 110 56 350
178 532 271 l333 169 0 105 c0 58 5 461 11 897 l11 792 -28 26 c-23 22 -332
185 -349 185 -3 0 -5 -10 -5 -22z"/>
</g>
</svg>
